M48
; DRILL file {KiCad (5.1.2)-1} date 4/25/2020 11:27:46 AM
; FORMAT={3:3/ absolute / metric / suppress leading zeros}
; #@! TF.CreationDate,2020-04-25T11:27:46-05:00
; #@! TF.GenerationSoftware,Kicad,Pcbnew,(5.1.2)-1
FMAT,2
METRIC,TZ
T1C0.400
T2C0.813
T3C1.000
T4C1.300
T5C2.200
T6C4.100
T7C1.200
T8C1.700
T9C1.900
T10C3.000
T11C4.100
%
G90
G05
T1
X62000Y-74800
X62000Y-75650
X62000Y-93800
X62000Y-94650
X62000Y-112750
X62000Y-113650
X62950Y-84050
X62950Y-103250
X62950Y-122100
X63900Y-92550
X63900Y-111550
X66145Y-89845
X66295Y-108711
X66300Y-91000
X66371Y-109507
X66469Y-71625
X66970Y-69690
X69850Y-86519
X69850Y-105569
X72710Y-94450
X73350Y-84400
X73531Y-71625
X73550Y-122250
X73650Y-103500
X73700Y-108560
X73720Y-109360
X73750Y-70783
X73790Y-90940
X73939Y-91852
X75410Y-74970
X76280Y-92080
X76390Y-109780
X78581Y-120650
X79375Y-71438
X80125Y-96631
X80620Y-111020
X80750Y-96060
X81040Y-101550
X81040Y-100183
X81100Y-115700
X81240Y-90320
X82050Y-122100
X82100Y-115900
X82900Y-94600
X82975Y-104830
X83250Y-89000
X83300Y-113400
X83350Y-70820
X83500Y-84100
X83500Y-85200
X83600Y-103050
X84750Y-103000
X85145Y-89845
X85230Y-105721
X85247Y-87490
X85247Y-86739
X85279Y-108677
X85300Y-91070
X85353Y-109474
X85428Y-104859
X85469Y-71625
X85469Y-85900
X85940Y-69750
X91830Y-107625
X92480Y-93380
X92531Y-85900
X92531Y-104900
X92531Y-71625
X92603Y-109547
X92670Y-90450
X92746Y-105745
X92757Y-86734
X92806Y-72410
X92821Y-89541
X92854Y-110356
X93550Y-122250
X93760Y-73970
X93840Y-92400
X94020Y-111220
X94460Y-90410
X94800Y-87480
X96500Y-81600
X96950Y-93700
X97000Y-74750
X97000Y-112700
X98000Y-97300
X98000Y-116250
X98050Y-78050
X98050Y-80050
X98390Y-100840
X98850Y-79100
X98980Y-93530
X99100Y-75700
X99200Y-73100
X99400Y-111500
X99910Y-77940
X100100Y-72050
X100350Y-114730
X100580Y-76720
X100640Y-95810
X101110Y-92070
X101150Y-111100
X102140Y-89750
X102540Y-79150
X102570Y-98210
X102570Y-117240
X102900Y-68930
X103250Y-107500
X104251Y-104033
X104254Y-85030
X104260Y-65140
X104469Y-66875
X104469Y-85875
X104469Y-104875
X104640Y-109030
X111531Y-85875
X111670Y-104790
X111696Y-66563
X111740Y-87730
X111747Y-85030
X111816Y-103875
X112006Y-67505
X113040Y-102950
X113570Y-89225
X113930Y-70060
X114210Y-101210
X115420Y-96670
X115480Y-77780
X115750Y-69950
X115820Y-81760
X115960Y-79780
X116000Y-89050
X116000Y-108000
X116790Y-111700
X116940Y-66200
X117180Y-73510
X117460Y-92620
X117520Y-79750
X118300Y-104670
X119000Y-87300
X119000Y-106300
X119300Y-98500
X119400Y-93350
X119420Y-70540
X119450Y-74450
X119520Y-112300
X119970Y-108690
X120110Y-89830
X120900Y-98500
X121000Y-87300
X121000Y-106300
X121550Y-76860
X121590Y-114780
X121730Y-95890
X122238Y-85725
X122626Y-67475
X122800Y-100960
X123190Y-65310
X123252Y-103343
X123254Y-77955
X123290Y-116900
X123294Y-82614
X123300Y-117700
X123340Y-104980
X123454Y-64514
X123469Y-78800
X123469Y-102500
X123469Y-83500
X127660Y-131620
X128500Y-127600
X129030Y-136260
X129710Y-127560
X130030Y-105410
X130531Y-78800
X130531Y-83500
X130571Y-116839
X130660Y-102430
X130680Y-64590
X130752Y-82660
X130811Y-103340
X130820Y-117750
X130821Y-63670
X130835Y-78043
X131230Y-136990
X132690Y-104690
X132772Y-123455
X132817Y-124254
X133160Y-83640
X133310Y-80360
X134000Y-108690
X134380Y-117630
X134420Y-94350
X134540Y-74940
X134650Y-113340
X134850Y-99290
X135000Y-67600
X135000Y-86600
X135000Y-105600
X135170Y-78780
X136050Y-71130
X136280Y-109010
X136350Y-90080
X136580Y-69420
X136680Y-115910
X137900Y-70690
X137900Y-108400
X138080Y-110100
X138200Y-89500
X138300Y-99500
X138300Y-100600
X138420Y-114850
X138640Y-95840
X138780Y-78960
X139000Y-92120
X139090Y-111090
X139525Y-81616
X139600Y-87090
X139640Y-68450
X139700Y-100600
X139710Y-85010
X139800Y-99600
X139900Y-89500
X140000Y-108400
X140180Y-107320
X140195Y-124195
X140269Y-123398
X140440Y-88110
X140570Y-98180
X140620Y-117180
X140730Y-79350
X141800Y-68550
X141880Y-83280
X142164Y-105630
X142239Y-66045
X142253Y-85030
X142469Y-66875
X142469Y-85875
X142469Y-104875
X144490Y-130900
X144500Y-127350
X146050Y-123031
X147480Y-130960
X147500Y-127350
X149531Y-104875
X149548Y-66859
X149613Y-85782
X149789Y-84898
X149806Y-105660
X149900Y-127900
X149939Y-66161
X150500Y-101125
X150660Y-131610
X151260Y-69390
X151500Y-127900
X151640Y-84760
X151660Y-104140
X151910Y-121380
X152050Y-66010
X152430Y-82570
X152630Y-86520
X153360Y-77510
X153540Y-96530
X153600Y-115500
X154000Y-70000
X154000Y-89600
X154000Y-108600
X154290Y-118650
X154800Y-100700
X154800Y-101700
X154800Y-102600
X155070Y-92450
X155079Y-127108
X155080Y-111480
X155100Y-73620
X155180Y-125930
X155690Y-100080
X156200Y-103200
X156400Y-102200
X156690Y-101360
X156900Y-111630
X156910Y-73580
X156950Y-92580
X157000Y-70000
X157000Y-89600
X157000Y-108600
X158250Y-94430
X158440Y-108530
X159130Y-101705
X159610Y-100620
X160520Y-140970
X161131Y-121444
X161161Y-68498
X161243Y-108084
X161250Y-87409
X161264Y-84356
X161469Y-69250
X161469Y-88250
X161469Y-107250
X161469Y-83500
X161520Y-85840
X162719Y-128588
X163018Y-127481
X163750Y-139790
X164370Y-121240
X164602Y-82414
X164880Y-83590
X164880Y-83590
X165060Y-119050
X165100Y-120520
X165690Y-81145
X165869Y-83500
X166360Y-123900
X167373Y-109275
X168531Y-69250
X168534Y-88247
X168588Y-121488
X168670Y-107160
X168748Y-87400
X168748Y-68407
X168910Y-120749
X169055Y-107861
X169740Y-85660
X169800Y-82570
X169900Y-84200
X171529Y-83284
X171600Y-89950
X171600Y-92800
X171620Y-84160
X171933Y-136388
X172410Y-120020
X172683Y-136875
X173200Y-78950
X173200Y-80650
X173200Y-100200
X173300Y-111100
X173400Y-120300
X173500Y-109700
X173510Y-69140
X173510Y-72025
X174000Y-73300
X174000Y-75200
X174000Y-76950
X174000Y-90600
X174100Y-78500
X174100Y-81150
X174300Y-126800
X174800Y-77000
X174840Y-121580
X174960Y-118300
X175510Y-113400
X175675Y-110500
X175700Y-105360
X176130Y-128740
X176670Y-143260
X176754Y-129923
X177708Y-130294
X178594Y-110331
X179500Y-73042
X179860Y-75650
X180181Y-123031
X180520Y-145400
X181769Y-108744
X182160Y-99280
X183050Y-144400
X184200Y-82100
X184700Y-99900
X184740Y-76400
X184900Y-85700
X185000Y-83300
X185100Y-100700
X185700Y-81900
X185700Y-99100
X185782Y-71653
X186400Y-73160
X187180Y-74190
X187400Y-87000
X188300Y-96300
X188500Y-88700
X188500Y-91400
X188700Y-93800
X188840Y-75670
X188900Y-83700
X189200Y-92900
X189200Y-95600
X189200Y-98000
X189300Y-85300
X189300Y-87900
X189300Y-90500
X190000Y-79360
X190300Y-78122
X190400Y-70900
X190700Y-99000
X190700Y-100400
T2
X181300Y-105300
X183840Y-105300
X186380Y-105300
X188920Y-105300
X176860Y-73042
X176860Y-75582
X176860Y-78122
X176860Y-80662
X176860Y-83202
X176860Y-85742
X176860Y-88282
X176860Y-90822
X176860Y-93362
X176860Y-95902
X176860Y-98442
X176860Y-100982
X178186Y-71772
X178186Y-74312
X178186Y-76852
X178186Y-79392
X178186Y-81932
X178186Y-84472
X178186Y-87012
X178186Y-89552
X178186Y-92092
X178186Y-94632
X178186Y-97172
X178186Y-99712
X192100Y-73042
X192100Y-75582
X192100Y-78122
X192100Y-80662
X192100Y-83202
X192100Y-85742
X192100Y-88282
X192100Y-90822
X192100Y-93362
X192100Y-95902
X192100Y-98442
X192100Y-100982
X193406Y-71772
X193406Y-74312
X193406Y-76852
X193406Y-79392
X193406Y-81932
X193406Y-84472
X193406Y-87012
X193406Y-89552
X193406Y-92092
X193406Y-94632
X193406Y-97172
X193406Y-99712
T4
X192900Y-103750
X192900Y-110250
T5
X177750Y-115750
X192250Y-124250
T6
X79500Y-86750
X98500Y-86750
X155500Y-83000
X98500Y-105750
X122750Y-122750
X169250Y-130500
X79500Y-105500
T7
X186200Y-114922
X186200Y-114950
X193200Y-114922
X193200Y-114950
T8
X160500Y-93750
X169500Y-93750
X141500Y-72375
X150500Y-72375
X160500Y-112750
X169500Y-112750
X84500Y-96125
X93500Y-96125
X103500Y-72375
X112500Y-72375
X132000Y-130000
X141000Y-130000
X153153Y-131585
X161847Y-133915
X122500Y-108000
X131500Y-108000
X141500Y-91375
X150500Y-91375
X65500Y-77125
X74500Y-77125
X103500Y-110375
X112500Y-110375
X84500Y-77125
X93500Y-77125
X65500Y-96125
X74500Y-96125
X122500Y-70000
X131500Y-70000
X177500Y-140397
X182000Y-132603
X160500Y-74750
X169500Y-74750
X122500Y-89000
X131500Y-89000
X65500Y-115125
X74500Y-115125
X103500Y-91375
X112500Y-91375
X141500Y-110375
X150500Y-110375
X84500Y-115125
X93500Y-115125
T9
X121920Y-89000
X132080Y-89000
X64920Y-115125
X75080Y-115125
X102920Y-91375
X113080Y-91375
X140920Y-110375
X151080Y-110375
X83920Y-115125
X94080Y-115125
X159920Y-93750
X170080Y-93750
X140920Y-72375
X151080Y-72375
X159920Y-112750
X170080Y-112750
X83920Y-96125
X94080Y-96125
X102920Y-72375
X113080Y-72375
X131420Y-130000
X141580Y-130000
X152593Y-131435
X162407Y-134065
X121920Y-108000
X132080Y-108000
X140920Y-91375
X151080Y-91375
X64920Y-77125
X75080Y-77125
X102920Y-110375
X113080Y-110375
X83920Y-77125
X94080Y-77125
X64920Y-96125
X75080Y-96125
X121920Y-70000
X132080Y-70000
X177210Y-140899
X182290Y-132101
X159920Y-74750
X170080Y-74750
T10
X123190Y-91540
X124460Y-94080
X129540Y-94080
X130810Y-91540
X66190Y-117665
X67460Y-120205
X72540Y-120205
X73810Y-117665
X104190Y-93915
X105460Y-96455
X110540Y-96455
X111810Y-93915
X142190Y-112915
X143460Y-115455
X148540Y-115455
X149810Y-112915
X85190Y-117665
X86460Y-120205
X91540Y-120205
X92810Y-117665
X161190Y-96290
X162460Y-98830
X167540Y-98830
X168810Y-96290
X142190Y-74915
X143460Y-77455
X148540Y-77455
X149810Y-74915
X161190Y-115290
X162460Y-117830
X167540Y-117830
X168810Y-115290
X85190Y-98665
X86460Y-101205
X91540Y-101205
X92810Y-98665
X104190Y-74915
X105460Y-77455
X110540Y-77455
X111810Y-74915
X132690Y-132540
X133960Y-135080
X139040Y-135080
X140310Y-132540
X153162Y-134217
X153732Y-137000
X158639Y-138314
X160523Y-136190
X123190Y-110540
X124460Y-113080
X129540Y-113080
X130810Y-110540
X142190Y-93915
X143460Y-96455
X148540Y-96455
X149810Y-93915
X66190Y-79665
X67460Y-82205
X72540Y-82205
X73810Y-79665
X104190Y-112915
X105460Y-115455
X110540Y-115455
X111810Y-112915
X85190Y-79665
X86460Y-82205
X91540Y-82205
X92810Y-79665
X66190Y-98665
X67460Y-101205
X72540Y-101205
X73810Y-98665
X123190Y-72540
X124460Y-75080
X129540Y-75080
X130810Y-72540
X180045Y-141070
X182879Y-141240
X183855Y-134470
X185419Y-136840
X161190Y-77290
X162460Y-79830
X167540Y-79830
X168810Y-77290
T11
X70000Y-77125
X108000Y-110375
X89000Y-77125
X70000Y-96125
X127000Y-70000
X179750Y-136500
X165000Y-74750
X127000Y-89000
X70000Y-115125
X108000Y-91375
X146000Y-110375
X89000Y-115125
X165000Y-93750
X146000Y-72375
X165000Y-112750
X89000Y-96125
X108000Y-72375
X136500Y-130000
X157500Y-132750
X127000Y-108000
X146000Y-91375
T3
G00X183150Y-112822
M15
G01X182650Y-112822
M16
G05
G00X183150Y-117050
M15
G01X182650Y-117050
M16
G05
G00X184650Y-112850
M15
G01X184150Y-112850
M16
G05
G00X184650Y-117022
M15
G01X184150Y-117022
M16
G05
G00X188650Y-112850
M15
G01X188150Y-112850
M16
G05
G00X188650Y-117022
M15
G01X188150Y-117022
M16
G05
G00X191650Y-112850
M15
G01X191150Y-112850
M16
G05
G00X191650Y-117022
M15
G01X191150Y-117022
M16
G05
T0
M30
