G04 #@! TF.GenerationSoftware,KiCad,Pcbnew,(5.1.2)-1*
G04 #@! TF.CreationDate,2020-04-25T11:27:45-05:00*
G04 #@! TF.ProjectId,corneWS2812NoSnap,636f726e-6557-4533-9238-31324e6f536e,2.1*
G04 #@! TF.SameCoordinates,Original*
G04 #@! TF.FileFunction,Profile,NP*
%FSLAX46Y46*%
G04 Gerber Fmt 4.6, Leading zero omitted, Abs format (unit mm)*
G04 Created by KiCad (PCBNEW (5.1.2)-1) date 2020-04-25 11:27:45*
%MOMM*%
%LPD*%
G04 APERTURE LIST*
%ADD10C,0.150000*%
G04 APERTURE END LIST*
D10*
X194750001Y-127975000D02*
G75*
G02X194522764Y-128847696I-1702236J-22697D01*
G01*
X181297263Y-151781464D02*
G75*
G02X179369251Y-152160956I-1153013J770507D01*
G01*
X164420556Y-143770344D02*
G75*
G02X165075000Y-143900000I-333152J-3398096D01*
G01*
X181300000Y-151775000D02*
X194525000Y-128850000D01*
X165075000Y-143900000D02*
X179400000Y-152175000D01*
X127750000Y-139000000D02*
X164450000Y-143775000D01*
X127396447Y-138853553D02*
G75*
G03X127750000Y-139000000I353553J353553D01*
G01*
X116850000Y-124400000D02*
X127400000Y-138850000D01*
X174000000Y-66250000D02*
X174000000Y-67500000D01*
X174000000Y-66250000D02*
G75*
G03X173500000Y-65750000I-500000J0D01*
G01*
X174000000Y-67500000D02*
G75*
G03X174500000Y-68000000I500000J0D01*
G01*
X194250000Y-68000000D02*
X174500000Y-68000000D01*
X116853553Y-124396447D02*
G75*
G03X116500000Y-124250000I-353553J-353553D01*
G01*
X61000000Y-123750000D02*
G75*
G03X61500000Y-124250000I500000J0D01*
G01*
X61500000Y-68000000D02*
G75*
G03X61000000Y-68500000I0J-500000D01*
G01*
X98500000Y-68000000D02*
G75*
G03X99000000Y-67500000I0J500000D01*
G01*
X99500000Y-63250000D02*
G75*
G03X99000000Y-63750000I0J-500000D01*
G01*
X117500000Y-63250000D02*
G75*
G03X118000000Y-62750000I0J500000D01*
G01*
X118500000Y-61000000D02*
G75*
G03X118000000Y-61500000I0J-500000D01*
G01*
X136000000Y-61500000D02*
G75*
G03X135500000Y-61000000I-500000J0D01*
G01*
X136000000Y-62750000D02*
G75*
G03X136500000Y-63250000I500000J0D01*
G01*
X155000000Y-63750000D02*
G75*
G03X154500000Y-63250000I-500000J0D01*
G01*
X155000000Y-65250000D02*
G75*
G03X155500000Y-65750000I500000J0D01*
G01*
X194750000Y-68500000D02*
G75*
G03X194250000Y-68000000I-500000J0D01*
G01*
X138250000Y-122300000D02*
X134750000Y-122300000D01*
X194750000Y-68500000D02*
X194750000Y-127975000D01*
X116500000Y-124250000D02*
X80500000Y-124250000D01*
X80500000Y-68000000D02*
X61500000Y-68000000D01*
X173900000Y-131100000D02*
X172100000Y-134200000D01*
X177800000Y-133400000D02*
X173900000Y-131100000D01*
X176100000Y-136400000D02*
X177800000Y-133400000D01*
X172100000Y-134200000D02*
X176100000Y-136400000D01*
X161300000Y-125800000D02*
X157900000Y-124900000D01*
X160100000Y-130200000D02*
X161300000Y-125800000D01*
X156700000Y-129300000D02*
X160100000Y-130200000D01*
X157900000Y-124900000D02*
X156700000Y-129300000D01*
X138250000Y-126750000D02*
X138250000Y-122300000D01*
X134750000Y-126750000D02*
X138250000Y-126750000D01*
X134750000Y-122350000D02*
X134750000Y-126750000D01*
X166750000Y-105000000D02*
X163250000Y-105000000D01*
X166750000Y-109500000D02*
X166750000Y-105000000D01*
X163250000Y-109500000D02*
X166750000Y-109500000D01*
X163250000Y-105000000D02*
X163250000Y-109500000D01*
X147750000Y-102650000D02*
X144250000Y-102650000D01*
X147750000Y-107150000D02*
X147750000Y-102650000D01*
X144250000Y-107150000D02*
X147750000Y-107150000D01*
X144250000Y-102650000D02*
X144250000Y-107100000D01*
X128750000Y-100250000D02*
X125250000Y-100250000D01*
X128750000Y-104750000D02*
X128750000Y-100300000D01*
X125250000Y-104750000D02*
X128750000Y-104750000D01*
X125250000Y-100300000D02*
X125250000Y-104750000D01*
X109750000Y-102650000D02*
X106250000Y-102650000D01*
X109750000Y-107150000D02*
X109750000Y-102650000D01*
X106250000Y-107150000D02*
X109750000Y-107150000D01*
X106250000Y-102650000D02*
X106250000Y-107100000D01*
X166750000Y-86000000D02*
X163250000Y-86000000D01*
X166750000Y-90500000D02*
X166750000Y-86000000D01*
X163250000Y-90500000D02*
X166750000Y-90500000D01*
X163250000Y-86000000D02*
X163250000Y-90500000D01*
X147750000Y-83650000D02*
X144250000Y-83650000D01*
X147750000Y-88150000D02*
X147750000Y-83650000D01*
X144250000Y-88150000D02*
X147750000Y-88150000D01*
X144250000Y-83650000D02*
X144250000Y-88100000D01*
X128750000Y-81250000D02*
X125250000Y-81250000D01*
X128750000Y-85750000D02*
X128750000Y-81300000D01*
X125250000Y-85750000D02*
X128750000Y-85750000D01*
X125250000Y-81300000D02*
X125250000Y-85750000D01*
X109750000Y-83650000D02*
X106250000Y-83650000D01*
X109750000Y-88150000D02*
X109750000Y-83650000D01*
X106250000Y-88150000D02*
X109750000Y-88150000D01*
X106250000Y-83650000D02*
X106250000Y-88100000D01*
X166750000Y-67000000D02*
X163250000Y-67000000D01*
X166750000Y-71500000D02*
X166750000Y-67000000D01*
X163250000Y-71500000D02*
X166750000Y-71500000D01*
X163250000Y-67000000D02*
X163250000Y-71500000D01*
X147750000Y-64650000D02*
X144250000Y-64650000D01*
X147750000Y-69150000D02*
X147750000Y-64650000D01*
X144250000Y-69150000D02*
X147750000Y-69150000D01*
X144250000Y-64650000D02*
X144250000Y-69100000D01*
X128750000Y-62250000D02*
X125250000Y-62250000D01*
X128750000Y-66750000D02*
X128750000Y-62250000D01*
X125250000Y-66750000D02*
X128750000Y-66750000D01*
X125250000Y-62250000D02*
X125250000Y-66700000D01*
X109750000Y-64650000D02*
X106250000Y-64650000D01*
X109750000Y-69150000D02*
X109750000Y-64650000D01*
X106250000Y-69150000D02*
X109750000Y-69150000D01*
X106250000Y-64650000D02*
X106250000Y-69100000D01*
X90750000Y-107400000D02*
X87250000Y-107400000D01*
X90750000Y-111900000D02*
X90750000Y-107400000D01*
X87250000Y-111900000D02*
X90750000Y-111900000D01*
X87250000Y-107400000D02*
X87250000Y-111900000D01*
X71750000Y-107400000D02*
X68250000Y-107400000D01*
X71750000Y-111900000D02*
X71750000Y-107400000D01*
X68250000Y-111900000D02*
X71750000Y-111900000D01*
X68250000Y-107400000D02*
X68250000Y-111900000D01*
X90750000Y-88400000D02*
X87250000Y-88400000D01*
X90750000Y-92900000D02*
X90750000Y-88400000D01*
X87250000Y-92900000D02*
X90750000Y-92900000D01*
X87250000Y-88400000D02*
X87250000Y-92900000D01*
X71750000Y-88400000D02*
X68250000Y-88400000D01*
X71750000Y-92900000D02*
X71750000Y-88400000D01*
X68250000Y-92900000D02*
X71750000Y-92900000D01*
X68250000Y-88400000D02*
X68250000Y-92900000D01*
X90750000Y-69400000D02*
X87250000Y-69400000D01*
X90750000Y-73900000D02*
X90750000Y-69400000D01*
X87250000Y-73900000D02*
X90750000Y-73900000D01*
X87250000Y-69400000D02*
X87250000Y-73900000D01*
X71750000Y-69400000D02*
X68250000Y-69400000D01*
X71750000Y-73900000D02*
X71750000Y-69400000D01*
X68250000Y-73900000D02*
X71750000Y-73900000D01*
X68250000Y-69400000D02*
X68250000Y-73900000D01*
X61500000Y-124250000D02*
X80500000Y-124250000D01*
X61000000Y-68500000D02*
X61000000Y-123750000D01*
X98500000Y-68000000D02*
X80500000Y-68000000D01*
X99000000Y-63750000D02*
X99000000Y-67500000D01*
X117500000Y-63250000D02*
X99500000Y-63250000D01*
X118000000Y-61500000D02*
X118000000Y-62750000D01*
X135500000Y-61000000D02*
X118500000Y-61000000D01*
X136000000Y-62750000D02*
X136000000Y-61500000D01*
X154500000Y-63250000D02*
X136500000Y-63250000D01*
X155000000Y-65250000D02*
X155000000Y-63750000D01*
X173500000Y-65750000D02*
X155500000Y-65750000D01*
M02*
