G04 #@! TF.GenerationSoftware,KiCad,Pcbnew,(5.1.2)-1*
G04 #@! TF.CreationDate,2020-04-25T11:30:18-05:00*
G04 #@! TF.ProjectId,corneWS2812,636f726e-6557-4533-9238-31322e6b6963,2.1*
G04 #@! TF.SameCoordinates,Original*
G04 #@! TF.FileFunction,Soldermask,Top*
G04 #@! TF.FilePolarity,Negative*
%FSLAX46Y46*%
G04 Gerber Fmt 4.6, Leading zero omitted, Abs format (unit mm)*
G04 Created by KiCad (PCBNEW (5.1.2)-1) date 2020-04-25 11:30:18*
%MOMM*%
%LPD*%
G04 APERTURE LIST*
%ADD10C,0.125000*%
%ADD11R,2.000000X1.400000*%
%ADD12C,1.400000*%
%ADD13C,0.100000*%
%ADD14C,1.600000*%
%ADD15O,2.900000X2.100000*%
%ADD16C,2.100000*%
%ADD17C,2.300000*%
%ADD18C,4.500000*%
%ADD19C,3.400000*%
%ADD20R,2.700000X2.400000*%
%ADD21C,2.400000*%
%ADD22C,1.924000*%
%ADD23R,1.350000X1.700000*%
%ADD24R,1.543000X1.035000*%
%ADD25R,1.924000X1.924000*%
%ADD26C,1.797000*%
%ADD27C,5.400000*%
%ADD28C,4.400000*%
G04 APERTURE END LIST*
D10*
X98740773Y-119902142D02*
X98693154Y-119949761D01*
X98550297Y-119997380D01*
X98455059Y-119997380D01*
X98312202Y-119949761D01*
X98216964Y-119854523D01*
X98169345Y-119759285D01*
X98121726Y-119568809D01*
X98121726Y-119425952D01*
X98169345Y-119235476D01*
X98216964Y-119140238D01*
X98312202Y-119045000D01*
X98455059Y-118997380D01*
X98550297Y-118997380D01*
X98693154Y-119045000D01*
X98740773Y-119092619D01*
X99312202Y-119997380D02*
X99216964Y-119949761D01*
X99169345Y-119902142D01*
X99121726Y-119806904D01*
X99121726Y-119521190D01*
X99169345Y-119425952D01*
X99216964Y-119378333D01*
X99312202Y-119330714D01*
X99455059Y-119330714D01*
X99550297Y-119378333D01*
X99597916Y-119425952D01*
X99645535Y-119521190D01*
X99645535Y-119806904D01*
X99597916Y-119902142D01*
X99550297Y-119949761D01*
X99455059Y-119997380D01*
X99312202Y-119997380D01*
X100074107Y-119997380D02*
X100074107Y-119330714D01*
X100074107Y-119521190D02*
X100121726Y-119425952D01*
X100169345Y-119378333D01*
X100264583Y-119330714D01*
X100359821Y-119330714D01*
X100693154Y-119330714D02*
X100693154Y-119997380D01*
X100693154Y-119425952D02*
X100740773Y-119378333D01*
X100836011Y-119330714D01*
X100978869Y-119330714D01*
X101074107Y-119378333D01*
X101121726Y-119473571D01*
X101121726Y-119997380D01*
X101978869Y-119949761D02*
X101883630Y-119997380D01*
X101693154Y-119997380D01*
X101597916Y-119949761D01*
X101550297Y-119854523D01*
X101550297Y-119473571D01*
X101597916Y-119378333D01*
X101693154Y-119330714D01*
X101883630Y-119330714D01*
X101978869Y-119378333D01*
X102026488Y-119473571D01*
X102026488Y-119568809D01*
X101550297Y-119664047D01*
X103788392Y-119902142D02*
X103740773Y-119949761D01*
X103597916Y-119997380D01*
X103502678Y-119997380D01*
X103359821Y-119949761D01*
X103264583Y-119854523D01*
X103216964Y-119759285D01*
X103169345Y-119568809D01*
X103169345Y-119425952D01*
X103216964Y-119235476D01*
X103264583Y-119140238D01*
X103359821Y-119045000D01*
X103502678Y-118997380D01*
X103597916Y-118997380D01*
X103740773Y-119045000D01*
X103788392Y-119092619D01*
X104216964Y-119997380D02*
X104216964Y-118997380D01*
X104645535Y-119997380D02*
X104645535Y-119473571D01*
X104597916Y-119378333D01*
X104502678Y-119330714D01*
X104359821Y-119330714D01*
X104264583Y-119378333D01*
X104216964Y-119425952D01*
X105502678Y-119949761D02*
X105407440Y-119997380D01*
X105216964Y-119997380D01*
X105121726Y-119949761D01*
X105074107Y-119854523D01*
X105074107Y-119473571D01*
X105121726Y-119378333D01*
X105216964Y-119330714D01*
X105407440Y-119330714D01*
X105502678Y-119378333D01*
X105550297Y-119473571D01*
X105550297Y-119568809D01*
X105074107Y-119664047D01*
X105978869Y-119997380D02*
X105978869Y-119330714D01*
X105978869Y-119521190D02*
X106026488Y-119425952D01*
X106074107Y-119378333D01*
X106169345Y-119330714D01*
X106264583Y-119330714D01*
X106597916Y-119997380D02*
X106597916Y-119330714D01*
X106597916Y-119521190D02*
X106645535Y-119425952D01*
X106693154Y-119378333D01*
X106788392Y-119330714D01*
X106883630Y-119330714D01*
X107121726Y-119330714D02*
X107359821Y-119997380D01*
X107597916Y-119330714D02*
X107359821Y-119997380D01*
X107264583Y-120235476D01*
X107216964Y-120283095D01*
X107121726Y-120330714D01*
X108645535Y-119330714D02*
X108883630Y-119997380D01*
X109121726Y-119330714D01*
X109455059Y-119092619D02*
X109502678Y-119045000D01*
X109597916Y-118997380D01*
X109836011Y-118997380D01*
X109931250Y-119045000D01*
X109978869Y-119092619D01*
X110026488Y-119187857D01*
X110026488Y-119283095D01*
X109978869Y-119425952D01*
X109407440Y-119997380D01*
X110026488Y-119997380D01*
X110455059Y-119902142D02*
X110502678Y-119949761D01*
X110455059Y-119997380D01*
X110407440Y-119949761D01*
X110455059Y-119902142D01*
X110455059Y-119997380D01*
X111455059Y-119997380D02*
X110883630Y-119997380D01*
X111169345Y-119997380D02*
X111169345Y-118997380D01*
X111074107Y-119140238D01*
X110978869Y-119235476D01*
X110883630Y-119283095D01*
X112502678Y-119330714D02*
X112883630Y-119330714D01*
X112645535Y-118997380D02*
X112645535Y-119854523D01*
X112693154Y-119949761D01*
X112788392Y-119997380D01*
X112883630Y-119997380D01*
X113645535Y-119997380D02*
X113645535Y-119473571D01*
X113597916Y-119378333D01*
X113502678Y-119330714D01*
X113312202Y-119330714D01*
X113216964Y-119378333D01*
X113645535Y-119949761D02*
X113550297Y-119997380D01*
X113312202Y-119997380D01*
X113216964Y-119949761D01*
X113169345Y-119854523D01*
X113169345Y-119759285D01*
X113216964Y-119664047D01*
X113312202Y-119616428D01*
X113550297Y-119616428D01*
X113645535Y-119568809D01*
X114121726Y-119997380D02*
X114121726Y-118997380D01*
X114121726Y-119378333D02*
X114216964Y-119330714D01*
X114407440Y-119330714D01*
X114502678Y-119378333D01*
X114550297Y-119425952D01*
X114597916Y-119521190D01*
X114597916Y-119806904D01*
X114550297Y-119902142D01*
X114502678Y-119949761D01*
X114407440Y-119997380D01*
X114216964Y-119997380D01*
X114121726Y-119949761D01*
X115026488Y-119997380D02*
X115026488Y-118997380D01*
X115026488Y-119378333D02*
X115121726Y-119330714D01*
X115312202Y-119330714D01*
X115407440Y-119378333D01*
X115455059Y-119425952D01*
X115502678Y-119521190D01*
X115502678Y-119806904D01*
X115455059Y-119902142D01*
X115407440Y-119949761D01*
X115312202Y-119997380D01*
X115121726Y-119997380D01*
X115026488Y-119949761D01*
X116312202Y-119949761D02*
X116216964Y-119997380D01*
X116026488Y-119997380D01*
X115931250Y-119949761D01*
X115883630Y-119854523D01*
X115883630Y-119473571D01*
X115931250Y-119378333D01*
X116026488Y-119330714D01*
X116216964Y-119330714D01*
X116312202Y-119378333D01*
X116359821Y-119473571D01*
X116359821Y-119568809D01*
X115883630Y-119664047D01*
X117216964Y-119997380D02*
X117216964Y-118997380D01*
X117216964Y-119949761D02*
X117121726Y-119997380D01*
X116931250Y-119997380D01*
X116836011Y-119949761D01*
X116788392Y-119902142D01*
X116740773Y-119806904D01*
X116740773Y-119521190D01*
X116788392Y-119425952D01*
X116836011Y-119378333D01*
X116931250Y-119330714D01*
X117121726Y-119330714D01*
X117216964Y-119378333D01*
X118931249Y-119997380D02*
X118455059Y-119997380D01*
X118455059Y-118997380D01*
X119264583Y-119473571D02*
X119597916Y-119473571D01*
X119740773Y-119997380D02*
X119264583Y-119997380D01*
X119264583Y-118997380D01*
X119740773Y-118997380D01*
X120169345Y-119997380D02*
X120169345Y-118997380D01*
X120407440Y-118997380D01*
X120550297Y-119045000D01*
X120645535Y-119140238D01*
X120693154Y-119235476D01*
X120740773Y-119425952D01*
X120740773Y-119568809D01*
X120693154Y-119759285D01*
X120645535Y-119854523D01*
X120550297Y-119949761D01*
X120407440Y-119997380D01*
X120169345Y-119997380D01*
X121121726Y-119949761D02*
X121216964Y-119997380D01*
X121407440Y-119997380D01*
X121502678Y-119949761D01*
X121550297Y-119854523D01*
X121550297Y-119806904D01*
X121502678Y-119711666D01*
X121407440Y-119664047D01*
X121264583Y-119664047D01*
X121169345Y-119616428D01*
X121121726Y-119521190D01*
X121121726Y-119473571D01*
X121169345Y-119378333D01*
X121264583Y-119330714D01*
X121407440Y-119330714D01*
X121502678Y-119378333D01*
X98121726Y-121336666D02*
X98597916Y-121336666D01*
X98026488Y-121622380D02*
X98359821Y-120622380D01*
X98693154Y-121622380D01*
X99455059Y-121622380D02*
X99455059Y-120622380D01*
X99455059Y-121574761D02*
X99359821Y-121622380D01*
X99169345Y-121622380D01*
X99074107Y-121574761D01*
X99026488Y-121527142D01*
X98978869Y-121431904D01*
X98978869Y-121146190D01*
X99026488Y-121050952D01*
X99074107Y-121003333D01*
X99169345Y-120955714D01*
X99359821Y-120955714D01*
X99455059Y-121003333D01*
X100359821Y-121622380D02*
X100359821Y-121098571D01*
X100312202Y-121003333D01*
X100216964Y-120955714D01*
X100026488Y-120955714D01*
X99931250Y-121003333D01*
X100359821Y-121574761D02*
X100264583Y-121622380D01*
X100026488Y-121622380D01*
X99931250Y-121574761D01*
X99883630Y-121479523D01*
X99883630Y-121384285D01*
X99931250Y-121289047D01*
X100026488Y-121241428D01*
X100264583Y-121241428D01*
X100359821Y-121193809D01*
X100836011Y-120955714D02*
X100836011Y-121955714D01*
X100836011Y-121003333D02*
X100931250Y-120955714D01*
X101121726Y-120955714D01*
X101216964Y-121003333D01*
X101264583Y-121050952D01*
X101312202Y-121146190D01*
X101312202Y-121431904D01*
X101264583Y-121527142D01*
X101216964Y-121574761D01*
X101121726Y-121622380D01*
X100931250Y-121622380D01*
X100836011Y-121574761D01*
X101597916Y-120955714D02*
X101978869Y-120955714D01*
X101740773Y-120622380D02*
X101740773Y-121479523D01*
X101788392Y-121574761D01*
X101883630Y-121622380D01*
X101978869Y-121622380D01*
X102693154Y-121574761D02*
X102597916Y-121622380D01*
X102407440Y-121622380D01*
X102312202Y-121574761D01*
X102264583Y-121479523D01*
X102264583Y-121098571D01*
X102312202Y-121003333D01*
X102407440Y-120955714D01*
X102597916Y-120955714D01*
X102693154Y-121003333D01*
X102740773Y-121098571D01*
X102740773Y-121193809D01*
X102264583Y-121289047D01*
X103597916Y-121622380D02*
X103597916Y-120622380D01*
X103597916Y-121574761D02*
X103502678Y-121622380D01*
X103312202Y-121622380D01*
X103216964Y-121574761D01*
X103169345Y-121527142D01*
X103121726Y-121431904D01*
X103121726Y-121146190D01*
X103169345Y-121050952D01*
X103216964Y-121003333D01*
X103312202Y-120955714D01*
X103502678Y-120955714D01*
X103597916Y-121003333D01*
X104836011Y-121622380D02*
X104836011Y-120622380D01*
X104836011Y-121003333D02*
X104931250Y-120955714D01*
X105121726Y-120955714D01*
X105216964Y-121003333D01*
X105264583Y-121050952D01*
X105312202Y-121146190D01*
X105312202Y-121431904D01*
X105264583Y-121527142D01*
X105216964Y-121574761D01*
X105121726Y-121622380D01*
X104931250Y-121622380D01*
X104836011Y-121574761D01*
X105645535Y-120955714D02*
X105883630Y-121622380D01*
X106121726Y-120955714D02*
X105883630Y-121622380D01*
X105788392Y-121860476D01*
X105740773Y-121908095D01*
X105645535Y-121955714D01*
X107169345Y-120622380D02*
X107407440Y-121622380D01*
X107597916Y-120908095D01*
X107788392Y-121622380D01*
X108026488Y-120622380D01*
X108550297Y-121622380D02*
X108455059Y-121574761D01*
X108407440Y-121527142D01*
X108359821Y-121431904D01*
X108359821Y-121146190D01*
X108407440Y-121050952D01*
X108455059Y-121003333D01*
X108550297Y-120955714D01*
X108693154Y-120955714D01*
X108788392Y-121003333D01*
X108836011Y-121050952D01*
X108883630Y-121146190D01*
X108883630Y-121431904D01*
X108836011Y-121527142D01*
X108788392Y-121574761D01*
X108693154Y-121622380D01*
X108550297Y-121622380D01*
X109312202Y-121622380D02*
X109312202Y-120955714D01*
X109312202Y-121146190D02*
X109359821Y-121050952D01*
X109407440Y-121003333D01*
X109502678Y-120955714D01*
X109597916Y-120955714D01*
X110074107Y-121622380D02*
X109978869Y-121574761D01*
X109931250Y-121479523D01*
X109931250Y-120622380D01*
X110883630Y-121622380D02*
X110883630Y-120622380D01*
X110883630Y-121574761D02*
X110788392Y-121622380D01*
X110597916Y-121622380D01*
X110502678Y-121574761D01*
X110455059Y-121527142D01*
X110407440Y-121431904D01*
X110407440Y-121146190D01*
X110455059Y-121050952D01*
X110502678Y-121003333D01*
X110597916Y-120955714D01*
X110788392Y-120955714D01*
X110883630Y-121003333D01*
X111312202Y-121574761D02*
X111407440Y-121622380D01*
X111597916Y-121622380D01*
X111693154Y-121574761D01*
X111740773Y-121479523D01*
X111740773Y-121431904D01*
X111693154Y-121336666D01*
X111597916Y-121289047D01*
X111455059Y-121289047D01*
X111359821Y-121241428D01*
X111312202Y-121146190D01*
X111312202Y-121098571D01*
X111359821Y-121003333D01*
X111455059Y-120955714D01*
X111597916Y-120955714D01*
X111693154Y-121003333D01*
X112169345Y-120955714D02*
X112169345Y-121955714D01*
X112169345Y-121003333D02*
X112264583Y-120955714D01*
X112455059Y-120955714D01*
X112550297Y-121003333D01*
X112597916Y-121050952D01*
X112645535Y-121146190D01*
X112645535Y-121431904D01*
X112597916Y-121527142D01*
X112550297Y-121574761D01*
X112455059Y-121622380D01*
X112264583Y-121622380D01*
X112169345Y-121574761D01*
X113502678Y-121622380D02*
X113502678Y-121098571D01*
X113455059Y-121003333D01*
X113359821Y-120955714D01*
X113169345Y-120955714D01*
X113074107Y-121003333D01*
X113502678Y-121574761D02*
X113407440Y-121622380D01*
X113169345Y-121622380D01*
X113074107Y-121574761D01*
X113026488Y-121479523D01*
X113026488Y-121384285D01*
X113074107Y-121289047D01*
X113169345Y-121241428D01*
X113407440Y-121241428D01*
X113502678Y-121193809D01*
X113883630Y-120955714D02*
X114074107Y-121622380D01*
X114264583Y-121146190D01*
X114455059Y-121622380D01*
X114645535Y-120955714D01*
X115026488Y-120955714D02*
X115026488Y-121622380D01*
X115026488Y-121050952D02*
X115074107Y-121003333D01*
X115169345Y-120955714D01*
X115312202Y-120955714D01*
X115407440Y-121003333D01*
X115455059Y-121098571D01*
X115455059Y-121622380D01*
X116121726Y-120622380D02*
X116216964Y-120622380D01*
X116312202Y-120670000D01*
X116359821Y-120717619D01*
X116407440Y-120812857D01*
X116455059Y-121003333D01*
X116455059Y-121241428D01*
X116407440Y-121431904D01*
X116359821Y-121527142D01*
X116312202Y-121574761D01*
X116216964Y-121622380D01*
X116121726Y-121622380D01*
X116026488Y-121574761D01*
X115978869Y-121527142D01*
X115931250Y-121431904D01*
X115883630Y-121241428D01*
X115883630Y-121003333D01*
X115931250Y-120812857D01*
X115978869Y-120717619D01*
X116026488Y-120670000D01*
X116121726Y-120622380D01*
X117074107Y-120622380D02*
X117169345Y-120622380D01*
X117264583Y-120670000D01*
X117312202Y-120717619D01*
X117359821Y-120812857D01*
X117407440Y-121003333D01*
X117407440Y-121241428D01*
X117359821Y-121431904D01*
X117312202Y-121527142D01*
X117264583Y-121574761D01*
X117169345Y-121622380D01*
X117074107Y-121622380D01*
X116978869Y-121574761D01*
X116931250Y-121527142D01*
X116883630Y-121431904D01*
X116836011Y-121241428D01*
X116836011Y-121003333D01*
X116883630Y-120812857D01*
X116931250Y-120717619D01*
X116978869Y-120670000D01*
X117074107Y-120622380D01*
X98359821Y-122247380D02*
X98550297Y-122247380D01*
X98645535Y-122295000D01*
X98740773Y-122390238D01*
X98788392Y-122580714D01*
X98788392Y-122914047D01*
X98740773Y-123104523D01*
X98645535Y-123199761D01*
X98550297Y-123247380D01*
X98359821Y-123247380D01*
X98264583Y-123199761D01*
X98169345Y-123104523D01*
X98121726Y-122914047D01*
X98121726Y-122580714D01*
X98169345Y-122390238D01*
X98264583Y-122295000D01*
X98359821Y-122247380D01*
X99216964Y-123247380D02*
X99216964Y-122580714D01*
X99216964Y-122771190D02*
X99264583Y-122675952D01*
X99312202Y-122628333D01*
X99407440Y-122580714D01*
X99502678Y-122580714D01*
X99836011Y-123247380D02*
X99836011Y-122580714D01*
X99836011Y-122247380D02*
X99788392Y-122295000D01*
X99836011Y-122342619D01*
X99883630Y-122295000D01*
X99836011Y-122247380D01*
X99836011Y-122342619D01*
X100740773Y-122580714D02*
X100740773Y-123390238D01*
X100693154Y-123485476D01*
X100645535Y-123533095D01*
X100550297Y-123580714D01*
X100407440Y-123580714D01*
X100312202Y-123533095D01*
X100740773Y-123199761D02*
X100645535Y-123247380D01*
X100455059Y-123247380D01*
X100359821Y-123199761D01*
X100312202Y-123152142D01*
X100264583Y-123056904D01*
X100264583Y-122771190D01*
X100312202Y-122675952D01*
X100359821Y-122628333D01*
X100455059Y-122580714D01*
X100645535Y-122580714D01*
X100740773Y-122628333D01*
X101216964Y-123247380D02*
X101216964Y-122580714D01*
X101216964Y-122247380D02*
X101169345Y-122295000D01*
X101216964Y-122342619D01*
X101264583Y-122295000D01*
X101216964Y-122247380D01*
X101216964Y-122342619D01*
X101693154Y-122580714D02*
X101693154Y-123247380D01*
X101693154Y-122675952D02*
X101740773Y-122628333D01*
X101836011Y-122580714D01*
X101978869Y-122580714D01*
X102074107Y-122628333D01*
X102121726Y-122723571D01*
X102121726Y-123247380D01*
X103026488Y-123247380D02*
X103026488Y-122723571D01*
X102978869Y-122628333D01*
X102883630Y-122580714D01*
X102693154Y-122580714D01*
X102597916Y-122628333D01*
X103026488Y-123199761D02*
X102931250Y-123247380D01*
X102693154Y-123247380D01*
X102597916Y-123199761D01*
X102550297Y-123104523D01*
X102550297Y-123009285D01*
X102597916Y-122914047D01*
X102693154Y-122866428D01*
X102931250Y-122866428D01*
X103026488Y-122818809D01*
X103645535Y-123247380D02*
X103550297Y-123199761D01*
X103502678Y-123104523D01*
X103502678Y-122247380D01*
X105216964Y-123247380D02*
X105216964Y-122247380D01*
X105216964Y-123199761D02*
X105121726Y-123247380D01*
X104931250Y-123247380D01*
X104836011Y-123199761D01*
X104788392Y-123152142D01*
X104740773Y-123056904D01*
X104740773Y-122771190D01*
X104788392Y-122675952D01*
X104836011Y-122628333D01*
X104931250Y-122580714D01*
X105121726Y-122580714D01*
X105216964Y-122628333D01*
X106074107Y-123199761D02*
X105978869Y-123247380D01*
X105788392Y-123247380D01*
X105693154Y-123199761D01*
X105645535Y-123104523D01*
X105645535Y-122723571D01*
X105693154Y-122628333D01*
X105788392Y-122580714D01*
X105978869Y-122580714D01*
X106074107Y-122628333D01*
X106121726Y-122723571D01*
X106121726Y-122818809D01*
X105645535Y-122914047D01*
X106502678Y-123199761D02*
X106597916Y-123247380D01*
X106788392Y-123247380D01*
X106883630Y-123199761D01*
X106931250Y-123104523D01*
X106931250Y-123056904D01*
X106883630Y-122961666D01*
X106788392Y-122914047D01*
X106645535Y-122914047D01*
X106550297Y-122866428D01*
X106502678Y-122771190D01*
X106502678Y-122723571D01*
X106550297Y-122628333D01*
X106645535Y-122580714D01*
X106788392Y-122580714D01*
X106883630Y-122628333D01*
X107359821Y-123247380D02*
X107359821Y-122580714D01*
X107359821Y-122247380D02*
X107312202Y-122295000D01*
X107359821Y-122342619D01*
X107407440Y-122295000D01*
X107359821Y-122247380D01*
X107359821Y-122342619D01*
X108264583Y-122580714D02*
X108264583Y-123390238D01*
X108216964Y-123485476D01*
X108169345Y-123533095D01*
X108074107Y-123580714D01*
X107931250Y-123580714D01*
X107836011Y-123533095D01*
X108264583Y-123199761D02*
X108169345Y-123247380D01*
X107978869Y-123247380D01*
X107883630Y-123199761D01*
X107836011Y-123152142D01*
X107788392Y-123056904D01*
X107788392Y-122771190D01*
X107836011Y-122675952D01*
X107883630Y-122628333D01*
X107978869Y-122580714D01*
X108169345Y-122580714D01*
X108264583Y-122628333D01*
X108740773Y-122580714D02*
X108740773Y-123247380D01*
X108740773Y-122675952D02*
X108788392Y-122628333D01*
X108883630Y-122580714D01*
X109026488Y-122580714D01*
X109121726Y-122628333D01*
X109169345Y-122723571D01*
X109169345Y-123247380D01*
X110407440Y-123247380D02*
X110407440Y-122247380D01*
X110407440Y-122628333D02*
X110502678Y-122580714D01*
X110693154Y-122580714D01*
X110788392Y-122628333D01*
X110836011Y-122675952D01*
X110883630Y-122771190D01*
X110883630Y-123056904D01*
X110836011Y-123152142D01*
X110788392Y-123199761D01*
X110693154Y-123247380D01*
X110502678Y-123247380D01*
X110407440Y-123199761D01*
X111216964Y-122580714D02*
X111455059Y-123247380D01*
X111693154Y-122580714D02*
X111455059Y-123247380D01*
X111359821Y-123485476D01*
X111312202Y-123533095D01*
X111216964Y-123580714D01*
X112693154Y-122580714D02*
X113074107Y-122580714D01*
X112836011Y-123247380D02*
X112836011Y-122390238D01*
X112883630Y-122295000D01*
X112978869Y-122247380D01*
X113074107Y-122247380D01*
X113550297Y-123247380D02*
X113455059Y-123199761D01*
X113407440Y-123152142D01*
X113359821Y-123056904D01*
X113359821Y-122771190D01*
X113407440Y-122675952D01*
X113455059Y-122628333D01*
X113550297Y-122580714D01*
X113693154Y-122580714D01*
X113788392Y-122628333D01*
X113836011Y-122675952D01*
X113883630Y-122771190D01*
X113883630Y-123056904D01*
X113836011Y-123152142D01*
X113788392Y-123199761D01*
X113693154Y-123247380D01*
X113550297Y-123247380D01*
X114455059Y-123247380D02*
X114359821Y-123199761D01*
X114312202Y-123152142D01*
X114264583Y-123056904D01*
X114264583Y-122771190D01*
X114312202Y-122675952D01*
X114359821Y-122628333D01*
X114455059Y-122580714D01*
X114597916Y-122580714D01*
X114693154Y-122628333D01*
X114740773Y-122675952D01*
X114788392Y-122771190D01*
X114788392Y-123056904D01*
X114740773Y-123152142D01*
X114693154Y-123199761D01*
X114597916Y-123247380D01*
X114455059Y-123247380D01*
X115169345Y-123199761D02*
X115264583Y-123247380D01*
X115455059Y-123247380D01*
X115550297Y-123199761D01*
X115597916Y-123104523D01*
X115597916Y-123056904D01*
X115550297Y-122961666D01*
X115455059Y-122914047D01*
X115312202Y-122914047D01*
X115216964Y-122866428D01*
X115169345Y-122771190D01*
X115169345Y-122723571D01*
X115216964Y-122628333D01*
X115312202Y-122580714D01*
X115455059Y-122580714D01*
X115550297Y-122628333D01*
X115883630Y-122580714D02*
X116264583Y-122580714D01*
X116026488Y-122247380D02*
X116026488Y-123104523D01*
X116074107Y-123199761D01*
X116169345Y-123247380D01*
X116264583Y-123247380D01*
X117026488Y-123247380D02*
X117026488Y-122723571D01*
X116978869Y-122628333D01*
X116883630Y-122580714D01*
X116693154Y-122580714D01*
X116597916Y-122628333D01*
X117026488Y-123199761D02*
X116931250Y-123247380D01*
X116693154Y-123247380D01*
X116597916Y-123199761D01*
X116550297Y-123104523D01*
X116550297Y-123009285D01*
X116597916Y-122914047D01*
X116693154Y-122866428D01*
X116931250Y-122866428D01*
X117026488Y-122818809D01*
X117502678Y-122580714D02*
X117502678Y-123247380D01*
X117502678Y-122675952D02*
X117550297Y-122628333D01*
X117645535Y-122580714D01*
X117788392Y-122580714D01*
X117883630Y-122628333D01*
X117931250Y-122723571D01*
X117931250Y-123247380D01*
D11*
X167413000Y-120611000D03*
X167400000Y-122389000D03*
X162600000Y-120597000D03*
X162600000Y-122403000D03*
X129413000Y-115911000D03*
X129400000Y-117689000D03*
X124600000Y-115897000D03*
X124600000Y-117703000D03*
X91413000Y-104011000D03*
X91400000Y-105789000D03*
X86600000Y-103997000D03*
X86600000Y-105803000D03*
X86587000Y-86789000D03*
X86600000Y-85011000D03*
X91400000Y-86803000D03*
X91400000Y-84997000D03*
X124587000Y-79689000D03*
X124600000Y-77911000D03*
X129400000Y-79703000D03*
X129400000Y-77897000D03*
X162587000Y-84389000D03*
X162600000Y-82611000D03*
X167400000Y-84403000D03*
X167400000Y-82597000D03*
X167400000Y-89125000D03*
X167400000Y-87375000D03*
X162600000Y-89125000D03*
X162600000Y-87375000D03*
X138900000Y-125375000D03*
X138900000Y-123625000D03*
X134100000Y-125375000D03*
X134100000Y-123625000D03*
X72400000Y-110500000D03*
X72400000Y-108750000D03*
X67600000Y-110500000D03*
X67600000Y-108750000D03*
X148400000Y-86750000D03*
X148400000Y-85000000D03*
X143600000Y-86750000D03*
X143600000Y-85000000D03*
D12*
X173042228Y-135390961D03*
D13*
G36*
X172936010Y-134174936D02*
G01*
X174148446Y-134874936D01*
X173148446Y-136606986D01*
X171936010Y-135906986D01*
X172936010Y-134174936D01*
X172936010Y-134174936D01*
G37*
D12*
X174557772Y-136265961D03*
D13*
G36*
X174451554Y-135049936D02*
G01*
X175663990Y-135749936D01*
X174663990Y-137481986D01*
X173451554Y-136781986D01*
X174451554Y-135049936D01*
X174451554Y-135049936D01*
G37*
D12*
X175442228Y-131234039D03*
D13*
G36*
X175336010Y-130018014D02*
G01*
X176548446Y-130718014D01*
X175548446Y-132450064D01*
X174336010Y-131750064D01*
X175336010Y-130018014D01*
X175336010Y-130018014D01*
G37*
D12*
X176957772Y-132109039D03*
D13*
G36*
X176851554Y-130893014D02*
G01*
X178063990Y-131593014D01*
X177063990Y-133325064D01*
X175851554Y-132625064D01*
X176851554Y-130893014D01*
X176851554Y-130893014D01*
G37*
D12*
X161091755Y-128966351D03*
D13*
G36*
X159944656Y-129383680D02*
G01*
X160307003Y-128031384D01*
X162238854Y-128549022D01*
X161876507Y-129901318D01*
X159944656Y-129383680D01*
X159944656Y-129383680D01*
G37*
D12*
X161544689Y-127275981D03*
D13*
G36*
X160397590Y-127693310D02*
G01*
X160759937Y-126341014D01*
X162691788Y-126858652D01*
X162329441Y-128210948D01*
X160397590Y-127693310D01*
X160397590Y-127693310D01*
G37*
D12*
X156455311Y-127724019D03*
D13*
G36*
X155308212Y-128141348D02*
G01*
X155670559Y-126789052D01*
X157602410Y-127306690D01*
X157240063Y-128658986D01*
X155308212Y-128141348D01*
X155308212Y-128141348D01*
G37*
D12*
X156908245Y-126033649D03*
D13*
G36*
X155761146Y-126450978D02*
G01*
X156123493Y-125098682D01*
X158055344Y-125616320D01*
X157692997Y-126968616D01*
X155761146Y-126450978D01*
X155761146Y-126450978D01*
G37*
D11*
X167400000Y-108125000D03*
X167400000Y-106375000D03*
X162600000Y-108125000D03*
X162600000Y-106375000D03*
X148400000Y-105750000D03*
X148400000Y-104000000D03*
X143600000Y-105750000D03*
X143600000Y-104000000D03*
X129400000Y-103375000D03*
X129400000Y-101625000D03*
X124600000Y-103375000D03*
X124600000Y-101625000D03*
X110400000Y-105750000D03*
X110400000Y-104000000D03*
X105600000Y-105750000D03*
X105600000Y-104000000D03*
X91400000Y-110500000D03*
X91400000Y-108750000D03*
X86600000Y-110500000D03*
X86600000Y-108750000D03*
X129400000Y-84375000D03*
X129400000Y-82625000D03*
X124600000Y-84375000D03*
X124600000Y-82625000D03*
X110400000Y-86750000D03*
X110400000Y-85000000D03*
X105600000Y-86750000D03*
X105600000Y-85000000D03*
X91400000Y-91500000D03*
X91400000Y-89750000D03*
X86600000Y-91500000D03*
X86600000Y-89750000D03*
X72400000Y-91500000D03*
X72400000Y-89750000D03*
X67600000Y-91500000D03*
X67600000Y-89750000D03*
X167400000Y-70125000D03*
X167400000Y-68375000D03*
X162600000Y-70125000D03*
X162600000Y-68375000D03*
X148400000Y-67750000D03*
X148400000Y-66000000D03*
X143600000Y-67750000D03*
X143600000Y-66000000D03*
X129400000Y-65375000D03*
X129400000Y-63625000D03*
X124600000Y-65375000D03*
X124600000Y-63625000D03*
X110400000Y-67750000D03*
X110400000Y-66000000D03*
X105600000Y-67750000D03*
X105600000Y-66000000D03*
X91400000Y-72500000D03*
X91400000Y-70750000D03*
X86600000Y-72500000D03*
X86600000Y-70750000D03*
X72400000Y-72500000D03*
X72400000Y-70750000D03*
X67600000Y-72500000D03*
X67600000Y-70750000D03*
D14*
X186200000Y-114950000D03*
X193200000Y-114950000D03*
D15*
X184400000Y-112850000D03*
X182900000Y-117050000D03*
X191400000Y-112850000D03*
X188400000Y-112850000D03*
D14*
X193200000Y-114922000D03*
X186200000Y-114922000D03*
D15*
X191400000Y-117022000D03*
X188400000Y-117022000D03*
X184400000Y-117022000D03*
X182900000Y-112822000D03*
D16*
X160500000Y-112750000D03*
X169500000Y-112750000D03*
D17*
X170080000Y-112750000D03*
X159920000Y-112750000D03*
D18*
X165000000Y-112750000D03*
D19*
X162460000Y-117830000D03*
X161190000Y-115290001D03*
X167540000Y-117830000D03*
X168810000Y-115290000D03*
D20*
X170700000Y-117870000D03*
X158000000Y-115330000D03*
D16*
X103500000Y-72375000D03*
X112500000Y-72375000D03*
D17*
X113080000Y-72375000D03*
X102920000Y-72375000D03*
D18*
X108000000Y-72375000D03*
D19*
X105460000Y-77455000D03*
X104190000Y-74915001D03*
X110540000Y-77455000D03*
X111810000Y-74915000D03*
D20*
X113700000Y-77495000D03*
X101000000Y-74955000D03*
D16*
X177500000Y-140397114D03*
X182000000Y-132602886D03*
D17*
X182290000Y-132100591D03*
X177210000Y-140899409D03*
D18*
X179750000Y-136500000D03*
D19*
X182879409Y-141239705D03*
X180044705Y-141069557D03*
X185419409Y-136840295D03*
X183854705Y-134470443D03*
D21*
X187034050Y-134123655D03*
D13*
G36*
X187398280Y-135892789D02*
G01*
X185319820Y-134692789D01*
X186669820Y-132354521D01*
X188748280Y-133554521D01*
X187398280Y-135892789D01*
X187398280Y-135892789D01*
G37*
D21*
X178484346Y-143852178D03*
D13*
G36*
X178848576Y-145621312D02*
G01*
X176770116Y-144421312D01*
X178120116Y-142083044D01*
X180198576Y-143283044D01*
X178848576Y-145621312D01*
X178848576Y-145621312D01*
G37*
D16*
X65500000Y-77125000D03*
X74500000Y-77125000D03*
D17*
X75080000Y-77125000D03*
X64920000Y-77125000D03*
D18*
X70000000Y-77125000D03*
D19*
X67460000Y-82205000D03*
X66190000Y-79665001D03*
X72540000Y-82205000D03*
X73810000Y-79665000D03*
D20*
X75700000Y-82245000D03*
X63000000Y-79705000D03*
D16*
X132000000Y-130000000D03*
X141000000Y-130000000D03*
D17*
X141580000Y-130000000D03*
X131420000Y-130000000D03*
D18*
X136500000Y-130000000D03*
D19*
X133960000Y-135080000D03*
X132690000Y-132540001D03*
X139040000Y-135080000D03*
X140310000Y-132540000D03*
D20*
X142200000Y-135120000D03*
X129500000Y-132580000D03*
D16*
X103500000Y-110375000D03*
X112500000Y-110375000D03*
D17*
X113080000Y-110375000D03*
X102920000Y-110375000D03*
D18*
X108000000Y-110375000D03*
D19*
X105460000Y-115455000D03*
X104190000Y-112915001D03*
X110540000Y-115455000D03*
X111810000Y-112915000D03*
D20*
X113700000Y-115495000D03*
X101000000Y-112955000D03*
D16*
X84500000Y-115125000D03*
X93500000Y-115125000D03*
D17*
X94080000Y-115125000D03*
X83920000Y-115125000D03*
D18*
X89000000Y-115125000D03*
D19*
X86460000Y-120205000D03*
X85190000Y-117665001D03*
X91540000Y-120205000D03*
X92810000Y-117665000D03*
D20*
X94700000Y-120245000D03*
X82000000Y-117705000D03*
D16*
X65500000Y-115125000D03*
X74500000Y-115125000D03*
D17*
X75080000Y-115125000D03*
X64920000Y-115125000D03*
D18*
X70000000Y-115125000D03*
D19*
X67460000Y-120205000D03*
X66190000Y-117665001D03*
X72540000Y-120205000D03*
X73810000Y-117665000D03*
D20*
X75700000Y-120245000D03*
X63000000Y-117705000D03*
D16*
X160500000Y-93750000D03*
X169500000Y-93750000D03*
D17*
X170080000Y-93750000D03*
X159920000Y-93750000D03*
D18*
X165000000Y-93750000D03*
D19*
X162460000Y-98830000D03*
X161190000Y-96290001D03*
X167540000Y-98830000D03*
X168810000Y-96290000D03*
D20*
X170700000Y-98870000D03*
X158000000Y-96330000D03*
D16*
X141500000Y-91375000D03*
X150500000Y-91375000D03*
D17*
X151080000Y-91375000D03*
X140920000Y-91375000D03*
D18*
X146000000Y-91375000D03*
D19*
X143460000Y-96455000D03*
X142190000Y-93915001D03*
X148540000Y-96455000D03*
X149810000Y-93915000D03*
D20*
X151700000Y-96495000D03*
X139000000Y-93955000D03*
D16*
X122500000Y-89000000D03*
X131500000Y-89000000D03*
D17*
X132080000Y-89000000D03*
X121920000Y-89000000D03*
D18*
X127000000Y-89000000D03*
D19*
X124460000Y-94080000D03*
X123190000Y-91540001D03*
X129540000Y-94080000D03*
X130810000Y-91540000D03*
D20*
X132700000Y-94120000D03*
X120000000Y-91580000D03*
D16*
X103500000Y-91375000D03*
X112500000Y-91375000D03*
D17*
X113080000Y-91375000D03*
X102920000Y-91375000D03*
D18*
X108000000Y-91375000D03*
D19*
X105460000Y-96455000D03*
X104190000Y-93915001D03*
X110540000Y-96455000D03*
X111810000Y-93915000D03*
D20*
X113700000Y-96495000D03*
X101000000Y-93955000D03*
D16*
X84500000Y-96125000D03*
X93500000Y-96125000D03*
D17*
X94080000Y-96125000D03*
X83920000Y-96125000D03*
D18*
X89000000Y-96125000D03*
D19*
X86460000Y-101205000D03*
X85190000Y-98665001D03*
X91540000Y-101205000D03*
X92810000Y-98665000D03*
D20*
X94700000Y-101245000D03*
X82000000Y-98705000D03*
D16*
X65500000Y-96125000D03*
X74500000Y-96125000D03*
D17*
X75080000Y-96125000D03*
X64920000Y-96125000D03*
D18*
X70000000Y-96125000D03*
D19*
X67460000Y-101205000D03*
X66190000Y-98665001D03*
X72540000Y-101205000D03*
X73810000Y-98665000D03*
D20*
X75700000Y-101245000D03*
X63000000Y-98705000D03*
D16*
X160500000Y-74750000D03*
X169500000Y-74750000D03*
D17*
X170080000Y-74750000D03*
X159920000Y-74750000D03*
D18*
X165000000Y-74750000D03*
D19*
X162460000Y-79830000D03*
X161190000Y-77290001D03*
X167540000Y-79830000D03*
X168810000Y-77290000D03*
D20*
X170700000Y-79870000D03*
X158000000Y-77330000D03*
D16*
X141500000Y-72375000D03*
X150500000Y-72375000D03*
D17*
X151080000Y-72375000D03*
X140920000Y-72375000D03*
D18*
X146000000Y-72375000D03*
D19*
X143460000Y-77455000D03*
X142190000Y-74915001D03*
X148540000Y-77455000D03*
X149810000Y-74915000D03*
D20*
X151700000Y-77495000D03*
X139000000Y-74955000D03*
D16*
X84500000Y-77125000D03*
X93500000Y-77125000D03*
D17*
X94080000Y-77125000D03*
X83920000Y-77125000D03*
D18*
X89000000Y-77125000D03*
D19*
X86460000Y-82205000D03*
X85190000Y-79665001D03*
X91540000Y-82205000D03*
X92810000Y-79665000D03*
D20*
X94700000Y-82245000D03*
X82000000Y-79705000D03*
D16*
X141500000Y-110375000D03*
X150500000Y-110375000D03*
D17*
X151080000Y-110375000D03*
X140920000Y-110375000D03*
D18*
X146000000Y-110375000D03*
D19*
X143460000Y-115455000D03*
X142190000Y-112915001D03*
X148540000Y-115455000D03*
X149810000Y-112915000D03*
D20*
X151700000Y-115495000D03*
X139000000Y-112955000D03*
D16*
X153153334Y-131585314D03*
X161846666Y-133914686D03*
D17*
X162406903Y-134064801D03*
X152593097Y-131435199D03*
D18*
X157500000Y-132750000D03*
D19*
X153731748Y-136999503D03*
X153162422Y-134217352D03*
X158638651Y-138314304D03*
X160522777Y-136189552D03*
D21*
X161680624Y-139170809D03*
D13*
G36*
X160066041Y-139980514D02*
G01*
X160687207Y-137662292D01*
X163295207Y-138361104D01*
X162674041Y-140679326D01*
X160066041Y-139980514D01*
X160066041Y-139980514D01*
G37*
D21*
X150070766Y-133430355D03*
D13*
G36*
X148456183Y-134240060D02*
G01*
X149077349Y-131921838D01*
X151685349Y-132620650D01*
X151064183Y-134938872D01*
X148456183Y-134240060D01*
X148456183Y-134240060D01*
G37*
D16*
X122500000Y-70000000D03*
X131500000Y-70000000D03*
D17*
X132080000Y-70000000D03*
X121920000Y-70000000D03*
D18*
X127000000Y-70000000D03*
D19*
X124460000Y-75080000D03*
X123190000Y-72540001D03*
X129540000Y-75080000D03*
X130810000Y-72540000D03*
D20*
X132700000Y-75120000D03*
X120000000Y-72580000D03*
D16*
X122500000Y-108000000D03*
X131500000Y-108000000D03*
D17*
X132080000Y-108000000D03*
X121920000Y-108000000D03*
D18*
X127000000Y-108000000D03*
D19*
X124460000Y-113080000D03*
X123190000Y-110540001D03*
X129540000Y-113080000D03*
X130810000Y-110540000D03*
D20*
X132700000Y-113120000D03*
X120000000Y-110580000D03*
D22*
X192100000Y-73042000D03*
X192100000Y-75582000D03*
X192100000Y-78122000D03*
X192100000Y-80662000D03*
X192100000Y-83202000D03*
X192100000Y-85742000D03*
X192100000Y-88282000D03*
X192100000Y-90822000D03*
X192100000Y-93362000D03*
X192100000Y-95902000D03*
X192100000Y-98442000D03*
X192100000Y-100982000D03*
X176860000Y-100982000D03*
X176860000Y-98442000D03*
X176860000Y-95902000D03*
X176860000Y-93362000D03*
X176860000Y-90822000D03*
X176860000Y-88282000D03*
X176860000Y-85742000D03*
X176860000Y-83202000D03*
X176860000Y-80662000D03*
X176860000Y-78122000D03*
X176860000Y-75582000D03*
X176860000Y-73042000D03*
X193406400Y-71772000D03*
X193406400Y-74312000D03*
X193406400Y-76852000D03*
X193406400Y-79392000D03*
X193406400Y-81932000D03*
X193406400Y-84472000D03*
X193406400Y-87012000D03*
X193406400Y-89552000D03*
X193406400Y-92092000D03*
X193406400Y-94632000D03*
X193406400Y-97172000D03*
X193406400Y-99712000D03*
X178186400Y-99712000D03*
X178186400Y-97172000D03*
X178186400Y-94632000D03*
X178186400Y-92092000D03*
X178186400Y-89552000D03*
X178186400Y-87012000D03*
X178186400Y-84472000D03*
X178186400Y-81932000D03*
X178186400Y-79392000D03*
X178186400Y-76852000D03*
X178186400Y-74312000D03*
X178186400Y-71772000D03*
D23*
X154000000Y-72150000D03*
X154000000Y-68600000D03*
X62000000Y-76900000D03*
X62000000Y-73350000D03*
X97000000Y-76900000D03*
X97000000Y-73350000D03*
X116000000Y-72150000D03*
X116000000Y-68600000D03*
X135000000Y-69775000D03*
X135000000Y-66225000D03*
X157000000Y-72150000D03*
X157000000Y-68600000D03*
X62000000Y-95900000D03*
X62000000Y-92350000D03*
X97000000Y-95900000D03*
X97000000Y-92350000D03*
X116000000Y-91150000D03*
X116000000Y-87600000D03*
X135000000Y-88775000D03*
X135000000Y-85225000D03*
X154000000Y-91150000D03*
X154000000Y-87600000D03*
X157000000Y-91150000D03*
X157000000Y-87600000D03*
X62000000Y-114900000D03*
X62000000Y-111350000D03*
X97000000Y-114900000D03*
X97000000Y-111350000D03*
X116000000Y-110150000D03*
X116000000Y-106600000D03*
X135000000Y-107775000D03*
X135000000Y-104225000D03*
X157000000Y-110150000D03*
X157000000Y-106600000D03*
X128500000Y-129775000D03*
X128500000Y-126225000D03*
X144500000Y-129525000D03*
X144500000Y-125975000D03*
X147500000Y-129525000D03*
X147500000Y-125975000D03*
X154000000Y-110150000D03*
X154000000Y-106600000D03*
D24*
X188875000Y-100749620D03*
X188875000Y-101750380D03*
X186375000Y-100749620D03*
X186375000Y-101750380D03*
X183875000Y-100749620D03*
X183875000Y-101750380D03*
X181375000Y-100749620D03*
X181375000Y-101750380D03*
D25*
X174000000Y-102820000D03*
X174000000Y-105360000D03*
X174000000Y-107900000D03*
D26*
X181300000Y-105300000D03*
X183840000Y-105300000D03*
X186380000Y-105300000D03*
X188920000Y-105300000D03*
D27*
X79500000Y-105500000D03*
D28*
X177750000Y-115750000D03*
X192250000Y-124250000D03*
D27*
X79500000Y-86750000D03*
X98500000Y-86750000D03*
X98500000Y-105750000D03*
X155500000Y-83000000D03*
X122750000Y-122750000D03*
X169250000Y-130500000D03*
D21*
X192900000Y-103750000D03*
X192900000Y-110250000D03*
M02*
